<svg id="mail" xmlns="http://www.w3.org/2000/svg" width="27" height="22.091" viewBox="0 0 27 22.091">
  <path id="Path_50" data-name="Path 50" d="M4.682,3H24.318A3.686,3.686,0,0,1,28,6.682V21.409a3.686,3.686,0,0,1-3.682,3.682H4.682A3.686,3.686,0,0,1,1,21.409V6.682A3.686,3.686,0,0,1,4.682,3ZM24.318,22.636a1.229,1.229,0,0,0,1.227-1.227V6.682a1.229,1.229,0,0,0-1.227-1.227H4.682A1.229,1.229,0,0,0,3.455,6.682V21.409a1.229,1.229,0,0,0,1.227,1.227Z" transform="translate(-1 -3)" fill="#f6db5a"/>
  <path id="Path_51" data-name="Path 51" d="M12.506,16.045a.942.942,0,0,1-.6-.222L1.446,7.233a1.367,1.367,0,0,1-.257-1.709.952.952,0,0,1,1.457-.3l9.86,8.1,9.86-8.1a.952.952,0,0,1,1.457.3,1.367,1.367,0,0,1-.257,1.709l-10.46,8.591A.942.942,0,0,1,12.506,16.045Z" transform="translate(1 -0.214)" fill="#f6db5a"/>
</svg>
