<svg id="map-pin" xmlns="http://www.w3.org/2000/svg" width="27.62" height="33.145" viewBox="0 0 27.62 33.145">
  <path id="Path_5" data-name="Path 5" d="M15.81,0A13.826,13.826,0,0,1,29.62,13.81a15.782,15.782,0,0,1-2.111,7.545,29.223,29.223,0,0,1-4.482,6.007,41.9,41.9,0,0,1-6.451,5.551,1.381,1.381,0,0,1-1.532,0,41.9,41.9,0,0,1-6.451-5.551,29.224,29.224,0,0,1-4.482-6.007A15.782,15.782,0,0,1,2,13.81,13.826,13.826,0,0,1,15.81,0Zm0,30.066c2.619-1.943,11.048-8.78,11.048-16.256a11.048,11.048,0,1,0-22.1,0C4.762,21.286,13.19,28.122,15.81,30.066Z" transform="translate(-2)" fill="#f6db5a"/>
  <path id="Ellipse_1" data-name="Ellipse 1" d="M4.524-1A5.524,5.524,0,1,1-1,4.524,5.53,5.53,0,0,1,4.524-1Zm0,8.286A2.762,2.762,0,1,0,1.762,4.524,2.765,2.765,0,0,0,4.524,7.286Z" transform="translate(9.286 9.285)" fill="#f6db5a"/>
</svg>
